<mxfile host="app.diagrams.net" modified="2023-12-05T03:06:27.387Z" agent="Mozilla/5.0 (Macintosh; Intel Mac OS X 10_15_7) AppleWebKit/537.36 (KHTML, like Gecko) Chrome/119.0.0.0 Safari/537.36" etag="GTtJMJ9L4_voaLk3Lsg4" version="22.1.5" type="github" pages="2">
  <diagram name="中文" id="oIWaoRSfvmgnu0RulYwi">
    <mxGraphModel dx="1434" dy="736" grid="1" gridSize="10" guides="1" tooltips="1" connect="1" arrows="1" fold="1" page="1" pageScale="1" pageWidth="827" pageHeight="1169" math="0" shadow="0">
      <root>
        <mxCell id="0" />
        <mxCell id="1" parent="0" />
        <mxCell id="PSOEcYOcLYugs-dGBhgL-3" value="" style="edgeStyle=orthogonalEdgeStyle;rounded=0;orthogonalLoop=1;jettySize=auto;html=1;" edge="1" parent="1" source="PSOEcYOcLYugs-dGBhgL-1" target="PSOEcYOcLYugs-dGBhgL-2">
          <mxGeometry relative="1" as="geometry" />
        </mxCell>
        <mxCell id="PSOEcYOcLYugs-dGBhgL-1" value="入驻开放平台" style="rounded=0;whiteSpace=wrap;html=1;" vertex="1" parent="1">
          <mxGeometry x="60" y="130" width="120" height="60" as="geometry" />
        </mxCell>
        <mxCell id="PSOEcYOcLYugs-dGBhgL-5" value="" style="edgeStyle=orthogonalEdgeStyle;rounded=0;orthogonalLoop=1;jettySize=auto;html=1;" edge="1" parent="1" source="PSOEcYOcLYugs-dGBhgL-2" target="PSOEcYOcLYugs-dGBhgL-4">
          <mxGeometry relative="1" as="geometry" />
        </mxCell>
        <mxCell id="PSOEcYOcLYugs-dGBhgL-2" value="初审提案" style="rounded=0;whiteSpace=wrap;html=1;" vertex="1" parent="1">
          <mxGeometry x="260" y="130" width="120" height="60" as="geometry" />
        </mxCell>
        <mxCell id="PSOEcYOcLYugs-dGBhgL-7" value="" style="edgeStyle=orthogonalEdgeStyle;rounded=0;orthogonalLoop=1;jettySize=auto;html=1;" edge="1" parent="1" source="PSOEcYOcLYugs-dGBhgL-4" target="PSOEcYOcLYugs-dGBhgL-6">
          <mxGeometry relative="1" as="geometry" />
        </mxCell>
        <mxCell id="PSOEcYOcLYugs-dGBhgL-4" value="复审提案" style="rounded=0;whiteSpace=wrap;html=1;" vertex="1" parent="1">
          <mxGeometry x="460" y="130" width="120" height="60" as="geometry" />
        </mxCell>
        <mxCell id="PSOEcYOcLYugs-dGBhgL-9" value="" style="edgeStyle=orthogonalEdgeStyle;rounded=0;orthogonalLoop=1;jettySize=auto;html=1;entryX=1;entryY=0.5;entryDx=0;entryDy=0;" edge="1" parent="1" source="PSOEcYOcLYugs-dGBhgL-6" target="PSOEcYOcLYugs-dGBhgL-8">
          <mxGeometry relative="1" as="geometry" />
        </mxCell>
        <mxCell id="PSOEcYOcLYugs-dGBhgL-6" value="开发" style="rounded=0;whiteSpace=wrap;html=1;" vertex="1" parent="1">
          <mxGeometry x="660" y="130" width="120" height="60" as="geometry" />
        </mxCell>
        <mxCell id="PSOEcYOcLYugs-dGBhgL-11" value="" style="edgeStyle=orthogonalEdgeStyle;rounded=0;orthogonalLoop=1;jettySize=auto;html=1;" edge="1" parent="1" source="PSOEcYOcLYugs-dGBhgL-8" target="PSOEcYOcLYugs-dGBhgL-10">
          <mxGeometry relative="1" as="geometry" />
        </mxCell>
        <mxCell id="PSOEcYOcLYugs-dGBhgL-8" value="测试" style="rounded=0;whiteSpace=wrap;html=1;" vertex="1" parent="1">
          <mxGeometry x="550" y="270" width="120" height="60" as="geometry" />
        </mxCell>
        <mxCell id="PSOEcYOcLYugs-dGBhgL-13" value="" style="edgeStyle=orthogonalEdgeStyle;rounded=0;orthogonalLoop=1;jettySize=auto;html=1;" edge="1" parent="1" source="PSOEcYOcLYugs-dGBhgL-10" target="PSOEcYOcLYugs-dGBhgL-12">
          <mxGeometry relative="1" as="geometry" />
        </mxCell>
        <mxCell id="PSOEcYOcLYugs-dGBhgL-10" value="上线评审文档提交" style="rounded=0;whiteSpace=wrap;html=1;" vertex="1" parent="1">
          <mxGeometry x="340" y="270" width="120" height="60" as="geometry" />
        </mxCell>
        <mxCell id="PSOEcYOcLYugs-dGBhgL-12" value="版本提交" style="rounded=0;whiteSpace=wrap;html=1;" vertex="1" parent="1">
          <mxGeometry x="120" y="270" width="120" height="60" as="geometry" />
        </mxCell>
        <mxCell id="PSOEcYOcLYugs-dGBhgL-14" value="发布上线" style="rounded=0;whiteSpace=wrap;html=1;" vertex="1" parent="1">
          <mxGeometry x="1470" y="130" width="120" height="60" as="geometry" />
        </mxCell>
      </root>
    </mxGraphModel>
  </diagram>
  <diagram id="fi1F4zah2-g3AzU3EGE6" name="英文">
    <mxGraphModel dx="1434" dy="736" grid="1" gridSize="10" guides="1" tooltips="1" connect="1" arrows="1" fold="1" page="1" pageScale="1" pageWidth="827" pageHeight="1169" math="0" shadow="0">
      <root>
        <mxCell id="0" />
        <mxCell id="1" parent="0" />
        <mxCell id="XtsnaM164l7epbg4YXGA-1" value="" style="edgeStyle=orthogonalEdgeStyle;rounded=0;orthogonalLoop=1;jettySize=auto;html=1;" edge="1" parent="1" source="XtsnaM164l7epbg4YXGA-2" target="XtsnaM164l7epbg4YXGA-4">
          <mxGeometry relative="1" as="geometry" />
        </mxCell>
        <mxCell id="XtsnaM164l7epbg4YXGA-2" value="入驻开放平台" style="rounded=0;whiteSpace=wrap;html=1;" vertex="1" parent="1">
          <mxGeometry x="60" y="130" width="120" height="60" as="geometry" />
        </mxCell>
        <mxCell id="XtsnaM164l7epbg4YXGA-3" value="" style="edgeStyle=orthogonalEdgeStyle;rounded=0;orthogonalLoop=1;jettySize=auto;html=1;" edge="1" parent="1" source="XtsnaM164l7epbg4YXGA-4" target="XtsnaM164l7epbg4YXGA-6">
          <mxGeometry relative="1" as="geometry" />
        </mxCell>
        <mxCell id="XtsnaM164l7epbg4YXGA-4" value="初审提案" style="rounded=0;whiteSpace=wrap;html=1;" vertex="1" parent="1">
          <mxGeometry x="260" y="130" width="120" height="60" as="geometry" />
        </mxCell>
        <mxCell id="XtsnaM164l7epbg4YXGA-5" value="" style="edgeStyle=orthogonalEdgeStyle;rounded=0;orthogonalLoop=1;jettySize=auto;html=1;" edge="1" parent="1" source="XtsnaM164l7epbg4YXGA-6" target="XtsnaM164l7epbg4YXGA-8">
          <mxGeometry relative="1" as="geometry" />
        </mxCell>
        <mxCell id="XtsnaM164l7epbg4YXGA-6" value="复审提案" style="rounded=0;whiteSpace=wrap;html=1;" vertex="1" parent="1">
          <mxGeometry x="460" y="130" width="120" height="60" as="geometry" />
        </mxCell>
        <mxCell id="XtsnaM164l7epbg4YXGA-7" value="" style="edgeStyle=orthogonalEdgeStyle;rounded=0;orthogonalLoop=1;jettySize=auto;html=1;" edge="1" parent="1" source="XtsnaM164l7epbg4YXGA-8" target="XtsnaM164l7epbg4YXGA-10">
          <mxGeometry relative="1" as="geometry" />
        </mxCell>
        <mxCell id="XtsnaM164l7epbg4YXGA-8" value="开发" style="rounded=0;whiteSpace=wrap;html=1;" vertex="1" parent="1">
          <mxGeometry x="660" y="130" width="120" height="60" as="geometry" />
        </mxCell>
        <mxCell id="XtsnaM164l7epbg4YXGA-9" value="" style="edgeStyle=orthogonalEdgeStyle;rounded=0;orthogonalLoop=1;jettySize=auto;html=1;" edge="1" parent="1" source="XtsnaM164l7epbg4YXGA-10" target="XtsnaM164l7epbg4YXGA-12">
          <mxGeometry relative="1" as="geometry" />
        </mxCell>
        <mxCell id="XtsnaM164l7epbg4YXGA-10" value="测试" style="rounded=0;whiteSpace=wrap;html=1;" vertex="1" parent="1">
          <mxGeometry x="660" y="270" width="120" height="60" as="geometry" />
        </mxCell>
        <mxCell id="XtsnaM164l7epbg4YXGA-11" value="" style="edgeStyle=orthogonalEdgeStyle;rounded=0;orthogonalLoop=1;jettySize=auto;html=1;" edge="1" parent="1" source="XtsnaM164l7epbg4YXGA-12" target="XtsnaM164l7epbg4YXGA-13">
          <mxGeometry relative="1" as="geometry" />
        </mxCell>
        <mxCell id="XtsnaM164l7epbg4YXGA-12" value="上线评审文档提交" style="rounded=0;whiteSpace=wrap;html=1;" vertex="1" parent="1">
          <mxGeometry x="460" y="270" width="120" height="60" as="geometry" />
        </mxCell>
        <mxCell id="XtsnaM164l7epbg4YXGA-15" value="" style="edgeStyle=orthogonalEdgeStyle;rounded=0;orthogonalLoop=1;jettySize=auto;html=1;" edge="1" parent="1" source="XtsnaM164l7epbg4YXGA-13" target="XtsnaM164l7epbg4YXGA-14">
          <mxGeometry relative="1" as="geometry" />
        </mxCell>
        <mxCell id="XtsnaM164l7epbg4YXGA-13" value="版本提交" style="rounded=0;whiteSpace=wrap;html=1;" vertex="1" parent="1">
          <mxGeometry x="260" y="270" width="120" height="60" as="geometry" />
        </mxCell>
        <mxCell id="XtsnaM164l7epbg4YXGA-14" value="发布上线" style="rounded=0;whiteSpace=wrap;html=1;" vertex="1" parent="1">
          <mxGeometry x="60" y="270" width="120" height="60" as="geometry" />
        </mxCell>
      </root>
    </mxGraphModel>
  </diagram>
</mxfile>
